<svg width="11" height="11" viewBox="0 0 11 11" fill="none" xmlns="http://www.w3.org/2000/svg">
<g clip-path="url(#clip0_3678_31274)">
<path d="M6.41205 5.49999L10.8078 1.10465C11.0608 0.851658 11.0608 0.442737 10.8078 0.189744C10.5548 -0.0632481 10.1458 -0.0632481 9.89279 0.189744L5.49707 4.58508L1.10133 0.189744C0.848314 -0.0632481 0.439357 -0.0632481 0.186343 0.189744C-0.0666716 0.442737 -0.0666716 0.851658 0.186343 1.10465L4.58206 5.49999L0.186343 9.89533C-0.0666716 10.1483 -0.0666716 10.5572 0.186343 10.8102C0.312528 10.9364 0.478182 10.9998 0.643836 10.9998C0.80949 10.9998 0.975144 10.9364 1.10133 10.8102L5.49705 6.41489L9.89276 10.8102C10.0189 10.9364 10.1846 10.9998 10.3503 10.9998C10.5159 10.9998 10.6816 10.9364 10.8077 10.8102C11.0608 10.5572 11.0608 10.1483 10.8077 9.89533L6.41205 5.49999Z" fill="#555555"/>
</g>
<defs>
<clipPath id="clip0_3678_31274">
<rect width="11.0009" height="11" fill="white"/>
</clipPath>
</defs>
</svg>
