<svg width="14" height="14" viewBox="0 0 14 14" fill="none" xmlns="http://www.w3.org/2000/svg">
<path d="M12.5 0H1.5C1.10218 0 0.720644 0.158035 0.43934 0.43934C0.158035 0.720644 0 1.10218 0 1.5V12.5C0 12.8978 0.158035 13.2794 0.43934 13.5607C0.720644 13.842 1.10218 14 1.5 14H7.7575C8.21724 14.0012 8.67266 13.9113 9.09741 13.7353C9.52215 13.5594 9.90779 13.301 10.232 12.975L12.975 10.232C13.301 9.90779 13.5594 9.52215 13.7353 9.09741C13.9113 8.67266 14.0012 8.21724 14 7.7575V1.5C14 1.10218 13.842 0.720644 13.5607 0.43934C13.2794 0.158035 12.8978 0 12.5 0Z" fill="#73081C"/>
<path d="M10 8.5C9.60254 8.50119 9.2217 8.6596 8.94065 8.94065C8.6596 9.2217 8.50119 9.60254 8.5 10V13.92C9.15563 13.7781 9.75635 13.45 10.23 12.975L12.975 10.23C13.45 9.75635 13.7781 9.15563 13.92 8.5H10Z" fill="#DF94A2"/>
</svg>
