<svg width="22" height="18" viewBox="0 0 22 18" fill="none" xmlns="http://www.w3.org/2000/svg">
<path d="M20.3169 7.125H16.3081C15.8626 7.125 15.5 7.48763 15.5 7.93313V16.4419C15.5 16.8874 15.8626 17.25 16.3077 17.25H20.3165C20.7624 17.25 21.125 16.8874 21.125 16.4419V7.93313C21.125 7.48763 20.7624 7.125 20.3169 7.125ZM18.875 16.125H17.75C17.5426 16.125 17.375 15.957 17.375 15.75C17.375 15.543 17.5426 15.375 17.75 15.375H18.875C19.0824 15.375 19.25 15.543 19.25 15.75C19.25 15.957 19.0824 16.125 18.875 16.125Z" fill="#73081C"/>
<path d="M19.25 6.375V2.16713C19.25 1.794 19.0989 1.42912 18.8349 1.1655C18.5671 0.897375 18.2109 0.75 17.8325 0.75H2.29213C1.51063 0.75 0.875 1.38563 0.875 2.16713V11.3329C0.875 11.706 1.02612 12.0712 1.28975 12.3345C1.55412 12.5989 1.919 12.75 2.29213 12.75H14.75V7.93313C14.75 7.074 15.4486 6.375 16.3077 6.375H19.25ZM10.625 11.4199H9.5C9.293 11.4199 9.125 11.2519 9.125 11.0449C9.125 10.8379 9.293 10.6699 9.5 10.6699H10.625C10.832 10.6699 11 10.8379 11 11.0449C11 11.2519 10.832 11.4199 10.625 11.4199Z" fill="#73081C"/>
<path d="M14 16.5H12.5V13.5H7.625V16.5H6.125C5.918 16.5 5.75 16.668 5.75 16.875C5.75 17.082 5.918 17.25 6.125 17.25H7.625H12.5H14C14.2074 17.25 14.375 17.082 14.375 16.875C14.375 16.668 14.2074 16.5 14 16.5Z" fill="#73081C"/>
</svg>
