<svg width="16" height="16" viewBox="0 0 16 16" fill="none" xmlns="http://www.w3.org/2000/svg">
<path d="M8.16496 1H7.83496C6.45425 1 5.33496 2.11929 5.33496 3.5V7.95C5.33496 9.33071 6.45425 10.45 7.83496 10.45H8.16496C9.54567 10.45 10.665 9.33071 10.665 7.95V3.5C10.665 2.11929 9.54567 1 8.16496 1Z" fill="#73091D"/>
<path d="M12.6655 6.89844C12.5999 6.8984 12.5348 6.91131 12.4741 6.93642C12.4135 6.96153 12.3583 6.99836 12.3119 7.0448C12.2654 7.09124 12.2286 7.14637 12.2035 7.20705C12.1784 7.26773 12.1655 7.33277 12.1655 7.39844C12.1655 8.5032 11.7267 9.56272 10.9455 10.3439C10.1643 11.1251 9.10476 11.564 8 11.564C6.89523 11.564 5.83571 11.1251 5.05453 10.3439C4.27334 9.56272 3.83447 8.5032 3.83447 7.39844C3.83447 7.26583 3.78179 7.13865 3.68803 7.04488C3.59426 6.95112 3.46708 6.89844 3.33447 6.89844C3.20186 6.89844 3.07469 6.95112 2.98092 7.04488C2.88715 7.13865 2.83447 7.26583 2.83447 7.39844C2.83621 8.68125 3.31461 9.91764 4.17678 10.8675C5.03895 11.8174 6.22335 12.413 7.5 12.5386V14.0019H5.8335C5.70089 14.0019 5.57371 14.0546 5.47994 14.1484C5.38618 14.2422 5.3335 14.3693 5.3335 14.5019C5.3335 14.6345 5.38618 14.7617 5.47994 14.8555C5.57371 14.9493 5.70089 15.0019 5.8335 15.0019H10.1665C10.2991 15.0019 10.4263 14.9493 10.5201 14.8555C10.6138 14.7617 10.6665 14.6345 10.6665 14.5019C10.6665 14.3693 10.6138 14.2422 10.5201 14.1484C10.4263 14.0546 10.2991 14.0019 10.1665 14.0019H8.5V12.5386C9.77664 12.413 10.961 11.8174 11.8232 10.8675C12.6854 9.91764 13.1638 8.68125 13.1655 7.39844C13.1656 7.33277 13.1527 7.26773 13.1275 7.20705C13.1024 7.14637 13.0656 7.09124 13.0192 7.0448C12.9727 6.99836 12.9176 6.96153 12.8569 6.93642C12.7962 6.91131 12.7312 6.8984 12.6655 6.89844Z" fill="#73091D"/>
</svg>
