<svg width="24" height="24" viewBox="0 0 24 24" fill="none" xmlns="http://www.w3.org/2000/svg">
<path d="M16.7268 5.97618C16.7267 6.91078 16.4494 7.82436 15.9301 8.60139C15.4108 9.37842 14.6727 9.98401 13.8092 10.3416C12.9457 10.6992 11.9955 10.7926 11.0789 10.6102C10.1623 10.4278 9.32029 9.97771 8.65947 9.31681C7.99864 8.6559 7.54863 7.81389 7.36634 6.89724C7.18405 5.98059 7.27767 5.03047 7.63536 4.16702C7.99305 3.30357 8.59875 2.56558 9.37586 2.04636C10.153 1.52713 11.0666 1.25 12.0012 1.25C12.6218 1.25004 13.2364 1.37232 13.8097 1.60986C14.3831 1.84739 14.904 2.19553 15.3429 2.6344C15.7817 3.07326 16.1297 3.59426 16.3672 4.16765C16.6047 4.74103 16.7269 5.35557 16.7268 5.97618ZM12.0012 12.1001C10.663 12.0985 9.33917 12.3759 8.11415 12.9145C6.88914 13.4531 5.78985 14.2412 4.88642 15.2284C3.29166 16.9659 3.68227 19.7299 5.69024 20.967C7.58882 22.1329 9.77324 22.75 12.0012 22.75C14.2292 22.75 16.4136 22.1329 18.3122 20.967C20.3201 19.7299 20.7107 16.9659 19.116 15.2284C18.2126 14.2412 17.1133 13.4531 15.8883 12.9145C14.6632 12.3759 13.3394 12.0985 12.0012 12.1001Z" fill="#73081C"/>
</svg>
