<svg width="22" height="16" viewBox="0 0 22 16" fill="none" xmlns="http://www.w3.org/2000/svg">
<path d="M21.3372 5.35851L18.9272 14.6364C18.8571 14.9051 18.7 15.143 18.4804 15.3129C18.2608 15.4829 17.9911 15.5753 17.7134 15.5758H4.28789C4.01022 15.5753 3.74053 15.4829 3.52094 15.3129C3.30135 15.143 3.14422 14.9051 3.0741 14.6364L0.664115 5.35851C0.605512 5.13518 0.6097 4.90002 0.676217 4.67892C0.742735 4.45783 0.868999 4.2594 1.0411 4.10549C1.21319 3.95158 1.42444 3.84817 1.65155 3.80666C1.87866 3.76515 2.11283 3.78716 2.32824 3.87025L6.32142 5.40776C6.3618 5.42347 6.40616 5.42579 6.44796 5.41439C6.48977 5.40299 6.5268 5.37846 6.55362 5.34443L10.012 0.911317C10.1288 0.760217 10.2786 0.637884 10.45 0.553716C10.6213 0.469547 10.8097 0.425781 11.0007 0.425781C11.1916 0.425781 11.38 0.469547 11.5514 0.553716C11.7227 0.637884 11.8726 0.760217 11.9893 0.911317L15.4477 5.34443C15.4745 5.37846 15.5116 5.40299 15.5534 5.41439C15.5952 5.42579 15.6395 5.42347 15.6799 5.40776L19.6731 3.87025C19.8884 3.79081 20.1213 3.77151 20.3467 3.81443C20.5722 3.85734 20.7817 3.96085 20.9528 4.11384C21.1238 4.26684 21.25 4.46353 21.3177 4.68281C21.3855 4.90209 21.3922 5.13568 21.3372 5.35851Z" fill="#73081C"/>
</svg>
