<svg width="22" height="18" viewBox="0 0 22 18" fill="none" xmlns="http://www.w3.org/2000/svg">
<path fill-rule="evenodd" clip-rule="evenodd" d="M9.10906 0.56866L11.7558 1.59784L3.85377 4.67054L1.08533 3.59403L8.866 0.56866C8.9472 0.537009 9.02777 0.537009 9.10906 0.56866ZM17.351 9.4064C19.5735 9.4064 21.3751 11.2082 21.3751 13.4307C21.3751 15.6532 19.5734 17.4549 17.351 17.4549C15.1285 17.4549 13.3267 15.6532 13.3267 13.4307C13.3267 11.2082 15.1285 9.4064 17.351 9.4064ZM18.8747 11.5955L16.4908 13.9794L15.6774 12.9556C15.4773 12.7039 15.1109 12.662 14.8592 12.8621C14.6075 13.0622 14.5656 13.4285 14.7658 13.6803L15.963 15.1868C16.17 15.4833 16.5962 15.5239 16.8541 15.2659L19.6996 12.4205C19.9274 12.1926 19.9274 11.8233 19.6996 11.5955C19.4718 11.3677 19.1025 11.3677 18.8747 11.5955ZM14.5822 2.69682C11.9482 3.72114 9.31418 4.74541 6.68001 5.76948L8.98749 6.66669L16.8897 3.59403L14.5822 2.69682ZM17.351 4.13197L9.32286 7.25359V16.5523L12.9742 15.1325C12.7689 14.6049 12.656 14.031 12.656 13.4307C12.656 10.8377 14.758 8.73574 17.351 8.73574V4.13197ZM8.65212 16.5523V7.25359L6.21888 6.3075V8.27103C6.21888 8.36594 6.108 8.41717 6.03581 8.35563L4.74442 7.25577L3.53671 7.63135C3.46482 7.65374 3.39259 7.60058 3.39259 7.52533V5.20852L0.624023 4.13201V13.2012C0.624023 13.3424 0.706399 13.4627 0.83799 13.5139L8.65212 16.5523Z" fill="#73081C"/>
</svg>
