<svg width="21" height="16" viewBox="0 0 21 16" fill="none" xmlns="http://www.w3.org/2000/svg">
<path d="M20.2814 6.66671C20.4464 6.66671 20.5975 6.57513 20.6738 6.42971C20.7511 6.28388 20.7407 6.10721 20.6487 5.97138C20.64 5.95921 19.837 4.76392 19.837 3.33334C19.837 1.90275 20.64 0.707459 20.6487 0.695292C20.7407 0.559459 20.7511 0.382792 20.6738 0.236958C20.5975 0.0915416 20.4464 0 20.2814 0H2.50177C1.27594 4.16667e-05 0.279297 0.997001 0.279297 2.22225V4.44446C0.279297 5.66975 1.27594 6.66671 2.50177 6.66671H20.2814ZM18.5035 5.33338H12.2806C12.0349 5.33338 11.8361 5.13459 11.8361 4.88892C11.8361 4.64325 12.0349 4.44446 12.2806 4.44446H18.5035C18.7491 4.44446 18.9479 4.64325 18.9479 4.88892C18.948 5.13459 18.7492 5.33338 18.5035 5.33338ZM6.94667 1.77783H18.5035C18.7491 1.77783 18.9479 1.97663 18.9479 2.22229C18.9479 2.46796 18.7491 2.66675 18.5035 2.66675H6.94667C6.70098 2.66675 6.50218 2.46796 6.50218 2.22229C6.50218 1.97658 6.70098 1.77783 6.94667 1.77783ZM3.83522 3.55559H9.16914C9.41482 3.55559 9.61362 3.75438 9.61362 4.00004C9.61362 4.24571 9.41482 4.4445 9.16914 4.4445H3.83522C3.58954 4.4445 3.39074 4.24571 3.39074 4.00004C3.39074 3.75438 3.58954 3.55559 3.83522 3.55559Z" fill="#73081C"/>
<path d="M19.837 10.8881C19.837 9.45752 20.6401 8.26219 20.6487 8.25002C20.7407 8.11419 20.7511 7.93752 20.6739 7.79169C20.5975 7.64627 20.4464 7.55469 20.2815 7.55469H2.50177C1.27594 7.55469 0.279297 8.55165 0.279297 9.7769V11.9992C0.279297 13.2244 1.27594 14.2214 2.50177 14.2214H10.5026C10.7483 14.2214 10.9471 14.0226 10.9471 13.7769V9.77694H6.94671C6.70103 9.77694 6.50222 9.57815 6.50222 9.33248C6.50222 9.08681 6.70103 8.88802 6.94671 8.88802H18.5035C18.7492 8.88802 18.948 9.08681 18.948 9.33248C18.948 9.57815 18.7492 9.77694 18.5035 9.77694H18.059V13.7769C18.059 14.0226 18.2578 14.2214 18.5035 14.2214H20.2815C20.4464 14.2214 20.5975 14.1298 20.6739 13.9844C20.7511 13.8386 20.7407 13.6619 20.6487 13.5261C20.64 13.5139 19.837 12.3187 19.837 10.8881ZM9.61366 11.1103C9.85935 11.1103 10.0582 11.3091 10.0582 11.5548C10.0582 11.8004 9.85935 11.9992 9.61366 11.9992H4.27975C4.03407 11.9992 3.83527 11.8004 3.83527 11.5548C3.83527 11.3091 4.03407 11.1103 4.27975 11.1103H9.61366Z" fill="#73081C"/>
<path d="M11.8359 15.5551C11.8359 15.7261 11.934 15.8815 12.0877 15.9557C12.2422 16.0295 12.4237 16.0082 12.5582 15.9023L14.5028 14.3463L16.4473 15.9023C16.5281 15.9666 16.6262 15.9996 16.7251 15.9996C16.7902 15.9996 16.8562 15.9852 16.9178 15.9557C17.0715 15.8815 17.1696 15.7261 17.1696 15.5551V9.77734H11.8359V15.5551Z" fill="#73081C"/>
</svg>
