<svg width="21" height="24" viewBox="0 0 21 24" fill="none" xmlns="http://www.w3.org/2000/svg">
<path d="M19.7481 16.913C18.2361 15.635 17.3691 13.767 17.3691 11.788V9C17.3691 5.481 14.7551 2.568 11.3691 2.08V1C11.3691 0.447 10.9211 0 10.3691 0C9.81714 0 9.36914 0.447 9.36914 1V2.08C5.98214 2.568 3.36914 5.481 3.36914 9V11.788C3.36914 13.767 2.50214 15.635 0.981141 16.921C0.592141 17.254 0.369141 17.738 0.369141 18.25C0.369141 19.215 1.15414 20 2.11914 20H18.6191C19.5841 20 20.3691 19.215 20.3691 18.25C20.3691 17.738 20.1461 17.254 19.7481 16.913Z" fill="#676767"/>
<path d="M10.3693 24C12.1803 24 13.6953 22.709 14.0433 21H6.69531C7.04331 22.709 8.55831 24 10.3693 24Z" fill="#676767"/>
</svg>
