<svg width="48" height="48" viewBox="0 0 48 48" fill="none" xmlns="http://www.w3.org/2000/svg">
<path d="M47.1862 24C47.1862 36.8055 36.8054 47.1864 23.9999 47.1864C11.1944 47.1864 0.813558 36.8055 0.813558 24C0.813558 11.1945 11.1944 0.813558 23.9999 0.813558C36.8054 0.813558 47.1862 11.1945 47.1862 24Z" stroke="#676767" stroke-width="1.62712"/>
<path d="M12.7569 24.8963L19.7829 31.9224C20.0353 32.2171 20.4789 32.2514 20.7736 31.999C21.0683 31.7466 21.1027 31.303 20.8502 31.0083C20.8267 30.9809 20.8011 30.9552 20.7736 30.9317L14.949 25.1001L33.4908 25.1107C33.8788 25.1107 34.1934 24.7962 34.1934 24.4081C34.1934 24.02 33.8788 23.7055 33.4908 23.7055L14.949 23.6948L20.7736 17.8702C21.0683 17.6179 21.1027 17.1743 20.8502 16.8796C20.5978 16.5849 20.1543 16.5505 19.8596 16.803C19.8321 16.8265 19.8064 16.8521 19.7829 16.8796L12.7569 23.9057C12.4845 24.1796 12.4845 24.6222 12.7569 24.8963Z" fill="#676767" stroke="#676767" stroke-width="0.883291"/>
</svg>
