<svg width="48" height="48" viewBox="0 0 48 48" fill="none" xmlns="http://www.w3.org/2000/svg">
<path d="M47.1862 24C47.1862 36.8055 36.8054 47.1864 23.9999 47.1864C11.1944 47.1864 0.813558 36.8055 0.813558 24C0.813558 11.1945 11.1944 0.813558 23.9999 0.813558C36.8054 0.813558 47.1862 11.1945 47.1862 24Z" stroke="#676767" stroke-width="1.62712"/>
<path d="M34.4306 23.9201L27.4046 16.894C27.1522 16.5993 26.7086 16.565 26.4139 16.8174C26.1192 17.0698 26.0848 17.5134 26.3373 17.8081C26.3608 17.8356 26.3864 17.8612 26.4139 17.8847L32.2385 23.7163L13.6967 23.7057C13.3087 23.7057 12.9941 24.0202 12.9941 24.4083C12.9941 24.7964 13.3087 25.1109 13.6967 25.1109L32.2385 25.1216L26.4139 30.9462C26.1192 31.1986 26.0848 31.6421 26.3373 31.9368C26.5897 32.2315 27.0332 32.2659 27.3279 32.0134C27.3554 31.9899 27.3811 31.9643 27.4046 31.9368L34.4306 24.9107C34.703 24.6368 34.703 24.1942 34.4306 23.9201Z" fill="#676767" stroke="#676767" stroke-width="0.883291"/>
</svg>
